<svg width="112" height="112" viewBox="0 0 112 112" fill="none" xmlns="http://www.w3.org/2000/svg">
<path d="M56.0046 9.33398C81.7786 9.33398 102.671 30.2267 102.671 56.0006C102.671 81.7746 81.7786 102.667 56.0046 102.667C47.7575 102.682 39.6553 100.499 32.5313 96.344L9.35663 102.667L15.666 79.4833C11.5078 72.357 9.32351 64.2514 9.33796 56.0006C9.33796 30.2267 30.2306 9.33398 56.0046 9.33398ZM40.1006 34.0673L39.1673 34.1047C38.5639 34.1462 37.9742 34.3047 37.4313 34.5713C36.9253 34.8584 36.4632 35.2167 36.0593 35.6353C35.4993 36.1627 35.182 36.62 34.8413 37.0633C33.1152 39.3075 32.1858 42.0628 32.2 44.894C32.2093 47.1806 32.8066 49.4066 33.74 51.488C35.6486 55.6973 38.7893 60.154 42.9333 64.284C43.932 65.278 44.912 66.2766 45.9666 67.2053C51.116 71.7385 57.2519 75.0078 63.8866 76.7533L66.5373 77.1593C67.4006 77.206 68.264 77.1406 69.132 77.0986C70.4908 77.027 71.8176 76.6591 73.0193 76.0207C73.6299 75.7049 74.2263 75.3624 74.8066 74.994C74.8066 74.994 75.0042 74.8602 75.39 74.574C76.02 74.1073 76.4073 73.776 76.93 73.23C77.322 72.8255 77.6486 72.3558 77.91 71.8207C78.274 71.06 78.638 69.6086 78.7873 68.4C78.8993 67.476 78.8666 66.972 78.8526 66.6593C78.834 66.16 78.4186 65.642 77.966 65.4226L75.25 64.2047C75.25 64.2047 71.19 62.436 68.7073 61.3066C68.4474 61.1935 68.1691 61.1287 67.886 61.1153C67.5666 61.0819 67.2439 61.1175 66.9395 61.2198C66.6352 61.3221 66.3563 61.4885 66.122 61.708C66.0986 61.6986 65.786 61.9647 62.412 66.0527C62.2183 66.3129 61.9516 66.5095 61.6457 66.6176C61.3399 66.7256 61.0088 66.7402 60.6946 66.6593C60.3905 66.5783 60.0926 66.4753 59.8033 66.3513C59.2246 66.1087 59.024 66.0153 58.6273 65.8473C55.948 64.6802 53.468 63.1009 51.2773 61.1667C50.6893 60.6533 50.1433 60.0933 49.5833 59.552C47.7475 57.7936 46.1475 55.8046 44.8233 53.6346L44.548 53.1913C44.3532 52.8917 44.1935 52.5707 44.072 52.2346C43.8946 51.5486 44.3566 50.998 44.3566 50.998C44.3566 50.998 45.4906 49.7566 46.018 49.0846C46.5313 48.4313 46.9653 47.7967 47.2453 47.344C47.796 46.4573 47.9686 45.5473 47.6793 44.8427C46.3726 41.6507 45.0224 38.4758 43.6286 35.318C43.3533 34.6926 42.5366 34.2446 41.7946 34.156C41.5426 34.1249 41.2906 34.1 41.0386 34.0813C40.412 34.0454 39.7837 34.0516 39.158 34.1L40.1006 34.0673Z" fill="black"/>
</svg>
